<svg xmlns="http://www.w3.org/2000/svg" xmlns:xlink="http://www.w3.org/1999/xlink" version="1.1" data-diagram-type="CLASS" style="width:258px;height:318px;background:#FFFFFF;" width="258px" height="318px" viewBox="0 0 258 318" zoomAndPan="magnify" preserveAspectRatio="none" contentStyleType="text/css"><?plantuml 1.2026.7beta6?><defs/><g font-family="sans-serif" lengthAdjust="spacing"><!--class A--><g class="entity" data-qualified-name="A" id="ent0001" data-source-line="1"><rect x="7" y="7" width="100.566" height="64.297" fill="#F1F1F1" style="stroke:#181818;stroke-width:0.5;" rx="2.5" ry="2.5"/><ellipse cx="48.545" cy="23" rx="11" ry="11" fill="#B4A7E5" style="stroke:#181818;stroke-width:1;"/><path d="M44.467,18.766 L44.467,16.609 L51.858,16.609 L51.858,18.766 L49.389,18.766 L49.389,26.844 L51.858,26.844 L51.858,29 L44.467,29 L44.467,26.844 L46.936,26.844 L46.936,18.766 L44.467,18.766 Z " fill="#000"/><text x="68.444" y="27.847" fill="#000" font-size="14" font-style="italic">A</text><line x1="8" y1="39" x2="106.566" y2="39" style="stroke:#181818;stroke-width:0.5;"/><line x1="8" y1="47" x2="106.566" y2="47" style="stroke:#181818;stroke-width:0.5;"/><g data-visibility-modifier="PUBLIC_METHOD"><ellipse cx="18" cy="60.648" rx="3" ry="3" fill="#84BE84" style="stroke:#038048;stroke-width:1;"/></g><text x="27" y="63.995" fill="#000" font-size="14" textLength="74.566">methodA()</text></g><!--class B--><g class="entity" data-qualified-name="B" id="ent0002" data-source-line="5"><rect x="142.99" y="7" width="100.594" height="64.297" fill="#F1F1F1" style="stroke:#181818;stroke-width:0.5;" rx="2.5" ry="2.5"/><ellipse cx="184.535" cy="23" rx="11" ry="11" fill="#B4A7E5" style="stroke:#181818;stroke-width:1;"/><path d="M180.457,18.766 L180.457,16.609 L187.848,16.609 L187.848,18.766 L185.379,18.766 L185.379,26.844 L187.848,26.844 L187.848,29 L180.457,29 L180.457,26.844 L182.926,26.844 L182.926,18.766 L180.457,18.766 Z " fill="#000"/><text x="204.434" y="27.847" fill="#000" font-size="14" font-style="italic">B</text><line x1="143.99" y1="39" x2="242.584" y2="39" style="stroke:#181818;stroke-width:0.5;"/><line x1="143.99" y1="47" x2="242.584" y2="47" style="stroke:#181818;stroke-width:0.5;"/><g data-visibility-modifier="PUBLIC_METHOD"><ellipse cx="153.99" cy="60.648" rx="3" ry="3" fill="#84BE84" style="stroke:#038048;stroke-width:1;"/></g><text x="162.99" y="63.995" fill="#000" font-size="14" textLength="74.594">methodB()</text></g><!--class C--><g class="entity" data-qualified-name="C" id="ent0003" data-source-line="9"><rect x="74.9" y="131.29" width="100.765" height="64.297" fill="#F1F1F1" style="stroke:#181818;stroke-width:0.5;" rx="2.5" ry="2.5"/><ellipse cx="116.445" cy="147.29" rx="11" ry="11" fill="#B4A7E5" style="stroke:#181818;stroke-width:1;"/><path d="M112.367,143.056 L112.367,140.899 L119.758,140.899 L119.758,143.056 L117.289,143.056 L117.289,151.134 L119.758,151.134 L119.758,153.29 L112.367,153.29 L112.367,151.134 L114.836,151.134 L114.836,143.056 L112.367,143.056 Z " fill="#000"/><text x="136.344" y="152.137" fill="#000" font-size="14" font-style="italic">C</text><line x1="75.9" y1="163.29" x2="174.665" y2="163.29" style="stroke:#181818;stroke-width:0.5;"/><line x1="75.9" y1="171.29" x2="174.665" y2="171.29" style="stroke:#181818;stroke-width:0.5;"/><g data-visibility-modifier="PUBLIC_METHOD"><ellipse cx="85.9" cy="184.938" rx="3" ry="3" fill="#84BE84" style="stroke:#038048;stroke-width:1;"/></g><text x="94.9" y="188.285" fill="#000" font-size="14" textLength="74.765">methodC()</text></g><!--class D--><g class="entity" data-qualified-name="D" id="ent0004" data-source-line="13"><rect x="103.89" y="255.59" width="42.78" height="48" fill="#F1F1F1" style="stroke:#181818;stroke-width:0.5;" rx="2.5" ry="2.5"/><ellipse cx="118.89" cy="271.59" rx="11" ry="11" fill="#ADD1B2" style="stroke:#181818;stroke-width:1;"/><path d="M121.859,277.231 Q121.281,277.528 120.64,277.668 Q119.999,277.824 119.296,277.824 Q116.796,277.824 115.468,276.184 Q114.156,274.528 114.156,271.403 Q114.156,268.278 115.468,266.621 Q116.796,264.965 119.296,264.965 Q119.999,264.965 120.64,265.121 Q121.296,265.278 121.859,265.574 L121.859,268.293 Q121.234,267.715 120.64,267.449 Q120.046,267.168 119.421,267.168 Q118.078,267.168 117.39,268.246 Q116.703,269.309 116.703,271.403 Q116.703,273.496 117.39,274.574 Q118.078,275.637 119.421,275.637 Q120.046,275.637 120.64,275.371 Q121.234,275.09 121.859,274.512 L121.859,277.231 Z " fill="#000"/><text x="132.89" y="276.437" fill="#000" font-size="14">D</text><line x1="104.89" y1="287.59" x2="145.67" y2="287.59" style="stroke:#181818;stroke-width:0.5;"/><line x1="104.89" y1="295.59" x2="145.67" y2="295.59" style="stroke:#181818;stroke-width:0.5;"/></g><!--reverse link A to C--><g class="link" data-entity-1="ent0001" data-entity-2="ent0003" id="lnk5" data-source-line="15" data-link-type="extension"><path d="M83.542,87.369 C93.702,105.629 97.69,112.81 107.83,131.05" style="stroke:#181818;stroke-width:1;" fill="none" id="A-backto-C" codeLine="15"/><polygon points="74.79,71.64,78.299,90.286,88.785,84.452,74.79,71.64" fill="none" style="stroke:#181818;stroke-width:1;stroke-linejoin:miter;stroke-miterlimit:10;"/></g><!--reverse link B to C--><g class="link" data-entity-1="ent0002" data-entity-2="ent0003" id="lnk6" data-source-line="16" data-link-type="extension"><path d="M167.025,87.373 C156.875,105.633 152.88,112.81 142.74,131.05" style="stroke:#181818;stroke-width:1;" fill="none" id="B-backto-C" codeLine="16"/><polygon points="175.77,71.64,161.781,84.458,172.269,90.288,175.77,71.64" fill="none" style="stroke:#181818;stroke-width:1;stroke-linejoin:miter;stroke-miterlimit:10;"/></g><!--reverse link C to D--><g class="link" data-entity-1="ent0003" data-entity-2="ent0004" id="lnk7" data-source-line="17" data-link-type="extension"><path d="M125.28,213.94 C125.28,232.68 125.28,238.06 125.28,255.17" style="stroke:#181818;stroke-width:1;stroke-dasharray:7,7;" fill="none" id="C-backto-D" codeLine="17"/><polygon points="125.28,195.94,119.28,213.94,131.28,213.94,125.28,195.94" fill="none" style="stroke:#181818;stroke-width:1;stroke-linejoin:miter;stroke-miterlimit:10;"/></g><?plantuml-src oymhIIrAIqnELN1KgEPI00BjtDIIZFmKHmrDhbekhaoul1Egl1Ewl3Egl3D4FZadiRXOmOMBor71faPNLy6Pomd6S0OozFGKN000?></g></svg>